<svg xmlns="http://www.w3.org/2000/svg" width="682" height="682" viewBox="0 0 682 682">
  <g id="Group_3" data-name="Group 3" transform="translate(-31 -171)">
    <g id="Ellipse_5" data-name="Ellipse 5" transform="translate(31 171)" fill="none" stroke="#fff" stroke-width="10">
      <circle cx="341" cy="341" r="341" stroke="none"/>
      <circle cx="341" cy="341" r="336" fill="none"/>
    </g>
    <path id="Subtraction_1" data-name="Subtraction 1" d="M248,495.5a250.278,250.278,0,0,1-38.75-3.016V319.69h-63V248h63V193.36c0-15.252,2.243-29.145,6.667-41.294a82.043,82.043,0,0,1,18.917-30.252,80.4,80.4,0,0,1,29.543-18.6A111.917,111.917,0,0,1,302.92,96.88a345.442,345.442,0,0,1,37.937,2.42c10.278,1.186,17.289,2.37,17.583,2.42v61H327.16c-35.16,0-40.41,24.265-40.41,38.73V248h68.78l-11,71.69H286.75V492.485A250.254,250.254,0,0,1,248,495.5Z" transform="translate(120 191)" fill="#fff"/>
  </g>
</svg>
